<svg xmlns="http://www.w3.org/2000/svg" width="40" height="20.1" viewBox="0 0 40 20.1"><path fill="#777" d="M10 .1C4.5.1 0 4.6 0 10.1s4.5 10 10 10 10-4.5 10-10-4.5-10-10-10zm0 19c-5 0-9-4.1-9-9 0-5 4.1-9 9-9 5 0 9 4.1 9 9 0 5-4 9-9 9z"/><path fill="#777" d="M13.8 13.1c-1.2.4-2.5.6-3.9.6s-2.8-.2-3.9-.6c-.4-.1-.7.3-.5.6 1 1.2 2.6 2 4.4 2s3.4-.8 4.4-2c.2-.4-.1-.8-.5-.6z"/><ellipse fill="#777" cx="6.6" cy="8.1" rx="1.3" ry="1.9"/><ellipse fill="#777" cx="13.4" cy="8.1" rx="1.3" ry="1.9"/><path fill="#FDC20F" d="M29.9.9c-5.1 0-9.3 4.2-9.3 9.3s4.2 9.3 9.3 9.3 9.3-4.2 9.3-9.3S35 .9 29.9.9z"/><path fill="#A37B2C" d="M30 .1c-5.5 0-10 4.5-10 10s4.5 10 10 10 10-4.5 10-10-4.5-10-10-10zm0 19c-5 0-9-4.1-9-9 0-5 4.1-9 9-9s9 4.1 9 9c0 5-4 9-9 9z"/><ellipse fill="#A37B2C" cx="26.6" cy="10.8" rx="1.3" ry="1.9"/><path fill="#A37B2C" d="M32.2 14.4c-1.4.7-3 .7-4.4 0-.2-.1-.6 0-.5.2.3 1.2 1.4 2.1 2.7 2.1s2.4-.9 2.7-2.1c.1-.2-.3-.3-.5-.2zm-6.3-8.3c-.5.1-.9.3-1.4.6-1 .6-1.5 1.5-1.4 2.3 0 .1.2.2.3 0 .3-.6.8-1.2 1.5-1.7.4-.2.8-.4 1.1-.5.6 0 .5-.8-.1-.7zm8.1 4.4c-1.1-.1-2 .3-2.3.9-.1.2.1.4.5.4l3.5.2c.3 0 .6-.1.5-.3-.2-.7-1.1-1.2-2.2-1.2zm-.9-2.2c-.6.2-.4.9.2.8.4-.1.8-.2 1.3-.1.9.1 1.7.4 2.2.8.1.1.3 0 .3-.2-.3-.7-1.2-1.3-2.4-1.4-.6-.1-1.2-.1-1.6.1z"/></svg>