<?xml version="1.0"?>
<svg xmlns="http://www.w3.org/2000/svg" id="Layer_1" height="512px" viewBox="0 0 512 512" width="512px" data-name="Layer 1" class=""><g><path d="m447.288 285.325-2.778 1.522c-10.081-12.65-27.759-17.591-41.2-10.67-.045.024-.09.047-.134.072l-6.5 3.555c-14.595-12.133-35.52-14.386-51.437-5.063l-32.263 17.817h-42.908a61.389 61.389 0 0 1 -26.919-6.266l-5.89-2.892a99.441 99.441 0 0 0 -104.824 10.391c-.131.1-.258.206-.381.316l-14.221 12.858a49.51 49.51 0 0 1 -19.092 10.75l-8.215-27.364a6 6 0 0 0 -5.747-4.275h-68.779a6 6 0 0 0 -5.957 6.715l22.926 190.924a6 6 0 0 0 5.957 5.285h103.168a6 6 0 0 0 5.747-7.725l-13.682-45.575 42.541-27.318a25.4 25.4 0 0 1 18.777-2.475q.189.048.381.084l85.862 16.057a109.268 109.268 0 0 0 68.459-9.814 5.924 5.924 0 0 0 .736-.438l148.514-103.56a6 6 0 0 0 1.73-7.981 40.054 40.054 0 0 0 -53.871-14.93zm-38.428 1.491c7.733-3.935 18.2-1.138 24.89 5.926l-56.988 31.223-3.676 1.969a49.293 49.293 0 0 0 -8.188-15.062zm-57.753-1.608.143-.081c10.24-6.028 23.421-5.383 33.794 1.042l-29.161 15.956a47.921 47.921 0 0 0 -19.659-8.7zm-306.858 191.792-21.485-178.924h57.552l53.713 178.924zm300.164-75.3a97.191 97.191 0 0 1 -60.5 8.547l-85.663-16.02a37.34 37.34 0 0 0 -27.608 3.794c-.094.053-.186.109-.277.168l-39.8 25.549-28.378-94.532a61.521 61.521 0 0 0 23.69-13.342l14.035-12.69a87.513 87.513 0 0 1 92.053-9.006l5.89 2.892a73.448 73.448 0 0 0 32.209 7.5h57.12c18 0 32.992 13.343 35.942 30.824l-41.921-1.926a243.776 243.776 0 0 0 -45 2.111 6 6 0 1 0 1.67 11.882 231.648 231.648 0 0 1 42.779-2.006l48.722 2.239q.138.006.276.006a6 6 0 0 0 6-6c0-1.16-.054-2.307-.133-3.448l6.953-3.723 70.578-38.669a28.024 28.024 0 0 1 34.509 6.035z" data-original="#000000" class="active-path" data-old_color="#000000" fill="#FFFFFF"/><path d="m65.35 449.594a19.757 19.757 0 1 0 19.756-19.97 19.887 19.887 0 0 0 -19.756 19.97zm19.756-7.97a7.973 7.973 0 1 1 -7.756 7.97 7.873 7.873 0 0 1 7.756-7.97z" data-original="#000000" class="active-path" data-old_color="#000000" fill="#FFFFFF"/><path d="m187.027 172.468c-.556 1.55-1.084 3.131-1.569 4.7a76.1 76.1 0 0 0 72.942 98.313h54.59a76 76 0 0 0 60.686-29.912 74.7 74.7 0 0 0 13.15-65.185q-.257-.96-.534-1.926c-7.685-26.74-25.346-47.493-50.134-59.191a16.657 16.657 0 0 0 -4.358-20.873 155.981 155.981 0 0 1 13.1-23.879c5.344-7.92 10.189-11.746 15.318-15.8 2-1.58 4.071-3.214 6.161-5.09a11.53 11.53 0 0 0 3.449-11.823c-1.523-5.057-6.085-8.026-11.618-7.567-4.831.41-11.354-3.446-16.114-6.257a53.508 53.508 0 0 0 -6.564-3.515c-11.741-4.779-19.308 3.294-22.538 6.741-1.108 1.182-5.01 3.349-6.874 4.084-.235.092-.473.177-.71.247-5.536 1.637-8.427 1.379-13.625-3.34-7.817-7.093-16.991-8.365-24.54-3.4-2.941 1.933-4.366 5.112-5.872 8.477a45.5 45.5 0 0 1 -2.111 4.305 5.282 5.282 0 0 1 -.872 1.231 1.289 1.289 0 0 1 -.234.055c-1.029.17-1.244.207-3.345-1.347l-.828-.62a73.077 73.077 0 0 0 -15.195-8.956c-.22-.1-.467-.22-.738-.351-.826-.4-1.854-.894-3.014-1.349-4.839-1.9-15.483-2.326-20.7-.83a12.277 12.277 0 0 0 -3.97 1.772 12.866 12.866 0 0 0 -4.71 6.954 14.836 14.836 0 0 0 6.059 16.313 75.242 75.242 0 0 1 19.685 19.26 86.763 86.763 0 0 1 11.289 22.821 16.676 16.676 0 0 0 -6.337 24.3c-13.972 7.024-38.493 21.482-49.325 51.638zm63.149-56.3a4.714 4.714 0 0 1 0-9.428h71.224a4.714 4.714 0 0 1 0 9.428zm-31.684-71.621a2.907 2.907 0 0 1 -1.312-3.082 2.735 2.735 0 0 1 .165-.434c.081-.025.177-.054.289-.086 2.685-.769 10.592-.488 13.014.463.741.291 1.511.662 2.189.99.348.167.666.32.951.451a61.5 61.5 0 0 1 12.975 7.632l.91.681c3.129 2.314 6.672 4.495 12.439 3.539 5.273-.872 7.851-4.235 9.508-7.069a55.63 55.63 0 0 0 2.7-5.455 27.436 27.436 0 0 1 1.742-3.5c2.824-1.709 5.985-.921 9.654 2.409 7.9 7.168 15.17 8.9 25.1 5.959.556-.165 1.128-.363 1.7-.589 1.551-.612 8-3.6 11.231-7.043 4.094-4.371 6-5.159 9.256-3.832a48.879 48.879 0 0 1 4.987 2.733c5.522 3.261 12.876 7.6 20.579 7.934-1.233 1.032-2.488 2.024-3.792 3.053-5.363 4.235-11.44 9.035-17.828 18.5a168.737 168.737 0 0 0 -14.646 26.935h-16.234c.282-4.982 1.6-12.366 6.468-18.016a25.351 25.351 0 0 1 6.969-5.625 6 6 0 1 0 -5.814-10.5 37.3 37.3 0 0 0 -10.249 8.293c-7.282 8.458-9.082 18.988-9.388 25.846h-6.2c-2.5-7.616-7.609-20.675-10.782-25.765a6 6 0 0 0 -10.184 6.348c2.1 3.367 5.852 12.669 8.288 19.417h-18.46a98.438 98.438 0 0 0 -13.535-27.983 87.931 87.931 0 0 0 -22.69-22.204zm27.529 84.905c1.041-.5 1.956-.946 2.774-1.356.457.037.915.07 1.381.07h71.224a16.651 16.651 0 0 0 3.949-.491c24.953 9.73 42.032 28.411 49.415 54.1.162.567.32 1.133.47 1.7a62.79 62.79 0 0 1 -11.066 54.786 64.092 64.092 0 0 1 -51.173 25.225h-54.595a63.81 63.81 0 0 1 -51.837-26.189 63.057 63.057 0 0 1 -9.637-56.579c.432-1.4.9-2.809 1.4-4.19 10.44-29.082 35.603-41.235 47.695-47.076z" data-original="#000000" class="active-path" data-old_color="#000000" fill="#FFFFFF"/><path d="m287.75 243.815c26.837 0 48.671-21.49 48.671-47.9s-21.834-47.9-48.671-47.9-48.669 21.49-48.669 47.905 21.833 47.895 48.669 47.895zm0-83.81c20.221 0 36.671 16.107 36.671 35.905s-16.45 35.905-36.671 35.905-36.669-16.107-36.669-35.9 16.45-35.91 36.669-35.91z" data-original="#000000" class="active-path" data-old_color="#000000" fill="#FFFFFF"/><path d="m287.618 209.293c-1.144-.049-4.074-1.339-4.245-2.876a6 6 0 0 0 -11.926 1.333c.74 6.628 5.973 10.8 10.962 12.564a6 6 0 0 0 11.991-.114v-.05a16.17 16.17 0 0 0 6.064-3.733 15 15 0 0 0 4.253-11.649c-.332-7.905-7.007-12.549-9.056-13.79l-.3-.184-.4-.231c-.379-.221-.562-.328-1.152-.628a10.857 10.857 0 0 0 -1.011-.448l-.68-.261a10.294 10.294 0 0 0 -1-.357 16.781 16.781 0 0 0 -1.716-.448l-1.729-.338c-2.125-.414-2.9-1.714-2.91-2.7a4.866 4.866 0 0 1 1.077-3.257 3.888 3.888 0 0 1 2.9-.732 4.826 4.826 0 0 1 4.849 3.455l-.033-.128 11.674-2.782a17 17 0 0 0 -10.83-11.6v-.29a6 6 0 1 0 -12 0v.365a14.186 14.186 0 0 0 -4.936 3.118 16.651 16.651 0 0 0 -4.7 12.025c.1 7 5.287 12.879 12.62 14.307l1.691.33c.153.036.338.093.505.144.05.021.1.041.152.06l.711.272c.224.116.311.167.476.263l.369.214c.057.037.113.071.165.1 1.281.776 3.21 2.489 3.274 4.024.077 1.836-.522 2.434-.746 2.659a6.455 6.455 0 0 1 -4.363 1.363z" data-original="#000000" class="active-path" data-old_color="#000000" fill="#FFFFFF"/></g> </svg>
