<?xml version="1.0"?>
<svg xmlns="http://www.w3.org/2000/svg" id="Capa_1" enable-background="new 0 0 512 512" height="512px" viewBox="0 0 512 512" width="512px" class=""><g><g><path d="m482.533 42c-33.745 0-61.566 25.336-64.716 58.935l-11.323 120.828c-13.538-1.916-27.787 2.319-38.177 12.71l-26.922 26.922-41.57 41.57c-17.943 17.944-27.825 41.801-27.825 67.176v126.859c0 8.284 6.716 15 15 15h130c8.284 0 15-6.716 15-15v-107.218l58.032-58.034c14.166-14.166 21.968-33 21.968-53.034v-207.248c0-16.248-13.219-29.466-29.467-29.466zm-.533 236.714c0 12.021-4.681 23.321-13.181 31.821l-62.426 62.427c-2.813 2.813-4.394 6.628-4.394 10.606v98.432h-99.999v-111.859c0-17.362 6.762-33.685 19.038-45.962l41.57-41.57 26.922-26.922c5.852-5.849 15.366-5.848 21.214 0 5.849 5.849 5.849 15.365 0 21.213l-64.351 64.35c-5.858 5.858-5.858 15.355 0 21.213 2.929 2.929 6.768 4.394 10.606 4.394s7.678-1.465 10.606-4.394l64.351-64.35c8.5-8.5 13.181-19.8 13.181-31.82 0-10.438-3.534-20.332-10.031-28.322l12.579-134.237c1.68-17.914 16.385-31.465 34.315-31.73z" data-original="#000000" class="active-path" data-old_color="#000000" fill="#FFFFFF"/><path d="m170.604 261.396-26.922-26.922c-8.5-8.5-19.8-13.181-31.82-13.181-2.147 0-4.27.156-6.359.45l-11.32-120.808c-3.149-33.599-30.971-58.935-64.717-58.935-16.248 0-29.466 13.218-29.466 29.466v207.249c0 20.034 7.801 38.868 21.967 53.034l58.033 58.033v107.218c0 8.284 6.716 15 15 15h130c8.284 0 15-6.716 15-15v-126.859c0-25.375-9.882-49.232-27.825-67.175zm39.396 220.604h-100v-98.432c0-3.978-1.581-7.793-4.394-10.606l-62.426-62.427c-8.499-8.5-13.18-19.8-13.18-31.821v-206.71c17.929.265 32.635 13.816 34.313 31.73l12.579 134.238c-14.321 17.656-13.272 43.718 3.151 60.14l64.35 64.35c2.929 2.929 6.768 4.394 10.606 4.394s7.678-1.464 10.606-4.394c5.858-5.858 5.858-15.355 0-21.213l-64.35-64.35c-5.848-5.849-5.848-15.365 0-21.213 2.833-2.833 6.6-4.394 10.606-4.394s7.773 1.561 10.606 4.394l68.493 68.493c12.277 12.277 19.038 28.6 19.038 45.962v111.859z" data-original="#000000" class="active-path" data-old_color="#000000" fill="#FFFFFF"/><path d="m189.883 141.629-10.47 61.047c-.965 5.627 1.348 11.315 5.967 14.671 4.62 3.355 10.744 3.798 15.797 1.142l54.823-28.823 54.823 28.822c2.195 1.154 4.592 1.723 6.979 1.723 3.11 0 6.205-.966 8.818-2.865 4.619-3.356 6.933-9.043 5.968-14.671l-10.471-61.047 44.353-43.233c4.089-3.985 5.561-9.946 3.796-15.376-1.764-5.43-6.458-9.388-12.108-10.209l-61.295-8.906-27.412-55.542c-2.527-5.12-7.741-8.362-13.451-8.362-5.709 0-10.924 3.242-13.451 8.361l-27.412 55.542-61.294 8.906c-5.65.821-10.344 4.779-12.109 10.209-1.764 5.43-.292 11.391 3.796 15.376zm37.372-49.171c4.886-.71 9.109-3.779 11.294-8.206l17.451-35.358 17.45 35.359c2.185 4.427 6.408 7.496 11.294 8.206l39.021 5.67-28.235 27.523c-3.536 3.446-5.149 8.411-4.314 13.277l6.666 38.863-34.901-18.349c-2.186-1.149-4.583-1.723-6.98-1.723s-4.795.574-6.98 1.723l-34.901 18.349 6.666-38.863c.834-4.866-.779-9.831-4.314-13.277l-28.236-27.523z" data-original="#000000" class="active-path" data-old_color="#000000" fill="#FFFFFF"/><circle cx="366" cy="160" r="15" data-original="#000000" class="active-path" data-old_color="#000000" fill="#FFFFFF"/><circle cx="401" cy="30" r="15" data-original="#000000" class="active-path" data-old_color="#000000" fill="#FFFFFF"/><circle cx="146" cy="160" r="15" data-original="#000000" class="active-path" data-old_color="#000000" fill="#FFFFFF"/><circle cx="256" cy="250" r="15" data-original="#000000" class="active-path" data-old_color="#000000" fill="#FFFFFF"/><circle cx="111" cy="30" r="15" data-original="#000000" class="active-path" data-old_color="#000000" fill="#FFFFFF"/></g></g> </svg>
