<?xml version="1.0"?>
<svg xmlns="http://www.w3.org/2000/svg" xmlns:xlink="http://www.w3.org/1999/xlink" version="1.1" id="Capa_1" x="0px" y="0px" width="512px" height="512px" viewBox="0 0 131.317 131.317" style="enable-background:new 0 0 131.317 131.317;" xml:space="preserve"><g transform="matrix(5.51091e-16 -1 -1 -5.51091e-16 131.317 131.317)"><g>
	<g>
		<polygon points="46.164,0 46.164,5.466 121.075,5.466 121.075,98.517 128.252,98.517 128.252,0   " data-original="#000000" class="active-path" data-old_color="#000000" fill="#FFFFFF"/>
		<polygon points="31.804,16.405 106.709,16.405 106.709,109.451 113.885,109.451 113.885,10.93 31.804,10.93   " data-original="#000000" class="active-path" data-old_color="#000000" fill="#FFFFFF"/>
		<polygon points="17.432,27.343 92.336,27.343 92.336,120.383 99.514,120.383 99.514,21.869 17.432,21.869   " data-original="#000000" class="active-path" data-old_color="#000000" fill="#FFFFFF"/>
		<path d="M3.065,131.317h82.09V32.808H3.065V131.317z M20.646,57.323h42.316v3.444H20.646V57.323z M20.646,72.663h32.596v3.452    H20.646V72.663z M20.646,88h32.596v3.458H20.646V88z M20.646,103.355h42.316v3.448H20.646V103.355z" data-original="#000000" class="active-path" data-old_color="#000000" fill="#FFFFFF"/>
	</g>
</g></g> </svg>
